<svg xmlns="http://www.w3.org/2000/svg" width="576" height="399" viewBox="0 0 576 399" version="1.1"><path d="M 357 3.381 C 357 4.971, 358.247 6.690, 360.750 8.551 C 367.260 13.393, 380.318 27.320, 385.207 34.637 C 394.713 48.865, 400.868 63.563, 404.621 81 C 407.147 92.738, 407.193 123.047, 404.702 134.263 C 399.026 159.812, 387.249 181.928, 369.782 199.837 C 359.998 209.869, 353.657 214.661, 342 220.832 C 315.477 234.873, 282.299 239.392, 254 232.819 C 231.656 227.629, 210.200 215.752, 196.920 201.223 C 166.785 168.250, 162.093 121.319, 185.017 82.160 C 188.540 76.142, 187.661 76.321, 179.622 83.261 C 163.548 97.139, 149.498 121.449, 144.520 144 C 141.946 155.658, 141.459 174.570, 143.417 186.828 C 147.439 212.011, 157.470 231.524, 175.159 248.577 C 212.580 284.653, 276.761 292.104, 328.251 266.350 C 350.775 255.085, 371.796 236.300, 384.598 215.999 C 386.852 212.424, 389.696 207.925, 390.918 206 L 393.140 202.500 392.504 207.500 C 390.139 226.072, 379.582 246.337, 364.635 261 C 358.144 267.367, 357 268.989, 357 271.825 L 357 275.161 428.250 274.696 C 503.155 274.207, 503.499 274.187, 521.252 269.427 C 529.468 267.224, 542.260 261.044, 548.466 256.280 C 558.512 248.568, 568.275 233.714, 572.642 219.500 C 574.982 211.883, 575.267 187.250, 573.105 179.500 C 569.260 165.712, 559.537 152.514, 546.909 143.938 C 540.837 139.815, 528.133 134.013, 525.112 133.985 C 524.226 133.976, 522.840 133.552, 522.034 133.042 C 520.907 132.329, 521.704 131.627, 525.473 130.012 C 532.316 127.078, 543.525 118.542, 548.049 112.818 C 562.172 94.951, 564.120 65.074, 552.647 42.291 C 544.101 25.321, 534.074 16.410, 515.456 9.240 C 496.494 1.938, 485.529 1.038, 415.250 1.017 L 357 1 357 3.381 M 418 82.621 L 418 112.243 442.750 111.714 C 468.932 111.154, 477.063 110.049, 485.075 105.962 C 493.848 101.486, 496.366 96.175, 496.438 82 C 496.487 72.298, 496.282 71.144, 493.742 66.815 C 487.215 55.695, 476.987 53.084, 439.750 53.031 L 418 53 418 82.621 M 418 191.385 L 418 223 444.750 222.969 C 459.462 222.952, 474.875 222.502, 479 221.970 C 503.120 218.856, 512.012 210.568, 511.990 191.221 C 511.975 177.805, 507.882 170.471, 497.988 166.128 C 488.073 161.778, 479.984 160.827, 448.250 160.285 L 418 159.769 418 191.385 M 0.457 357 C 0.457 379.825, 0.588 389.163, 0.749 377.750 C 0.909 366.338, 0.909 347.663, 0.749 336.250 C 0.588 324.838, 0.457 334.175, 0.457 357 M 316 324 L 316 332 327.486 332 L 338.973 332 339.236 364.750 L 339.500 397.500 348.750 397.788 L 358 398.075 358 365.070 L 358 332.066 369.250 331.783 L 380.500 331.500 380.792 323.750 L 381.084 316 348.542 316 L 316 316 316 324 M 437.651 319.213 C 431.005 334.736, 426.515 345.135, 425.006 348.500 C 418.279 363.497, 404 396.923, 404 397.674 C 404 397.893, 408.365 397.944, 413.699 397.786 L 423.399 397.500 427.060 389 L 430.720 380.500 448.032 380.500 L 465.344 380.500 469.113 389 L 472.882 397.500 482.441 397.786 C 487.699 397.944, 492 397.843, 492 397.564 C 492 397.023, 477.824 363.646, 475.358 358.382 C 474.555 356.667, 470.177 346.542, 465.631 335.882 L 457.364 316.500 448.211 316.213 L 439.058 315.926 437.651 319.213 M 522 357 L 522 398 548.424 398 L 574.848 398 575.174 390.020 L 575.500 382.039 558 381.770 L 540.500 381.500 540.236 348.750 L 539.973 316 530.986 316 L 522 316 522 357 M 22.250 331.716 C 23.763 331.945, 26.238 331.945, 27.750 331.716 C 29.263 331.487, 28.025 331.300, 25 331.300 C 21.975 331.300, 20.738 331.487, 22.250 331.716 M 240.250 331.716 C 241.762 331.945, 244.238 331.945, 245.750 331.716 C 247.262 331.487, 246.025 331.300, 243 331.300 C 239.975 331.300, 238.738 331.487, 240.250 331.716 M 442.860 352.200 C 440.462 357.810, 438.350 362.760, 438.167 363.200 C 437.983 363.640, 442.419 364, 448.024 364 C 457.086 364, 458.144 363.817, 457.580 362.349 C 454.956 355.509, 448.574 342, 447.967 342 C 447.556 342, 445.258 346.590, 442.860 352.200 M 95.272 356 C 95.272 358.475, 95.467 359.488, 95.706 358.250 C 95.944 357.012, 95.944 354.988, 95.706 353.750 C 95.467 352.512, 95.272 353.525, 95.272 356" stroke="none" fill="#f7921e" fill-rule="evenodd"/><path d="M 223.015 2.625 C 190.447 13.500, 159.839 38.679, 143.788 67.799 C 141.576 71.814, 139.565 74.898, 139.320 74.653 C 137.844 73.177, 144.013 50.894, 148.221 42.500 C 152.662 33.643, 161.248 22.079, 168.907 14.638 C 175.348 8.381, 177 6.187, 177 3.888 L 177 1 105.483 1 L 33.967 1 34.233 27.250 L 34.500 53.500 74.782 53.761 L 115.064 54.023 114.782 125.261 L 114.500 196.500 112.189 202.221 C 109.509 208.855, 103.137 215.865, 96.863 219.080 C 82.818 226.278, 59.617 219.858, 40.759 203.554 L 32.019 195.997 25.207 205.248 C 21.461 210.337, 14.412 220.034, 9.542 226.798 L 0.688 239.097 4.594 243.138 C 10.497 249.245, 24.577 259.542, 33 263.911 C 51.488 273.502, 70.254 277.615, 91.403 276.713 C 115.609 275.681, 131.553 269.725, 148.689 255.314 L 153.877 250.950 148.292 243.225 C 142.381 235.050, 135.483 221.490, 132.140 211.472 C 125.366 191.174, 123.622 163.391, 127.862 143.312 C 133.691 115.700, 145.987 92.938, 164.942 74.665 C 175.382 64.601, 183.103 59.260, 196.370 52.926 C 214.778 44.138, 234.688 40.304, 256.872 41.276 C 263.817 41.580, 271.828 42.347, 274.673 42.981 C 279.585 44.075, 279.876 44.319, 280.427 47.816 C 281.890 57.109, 282.970 70.239, 282.353 71.238 C 281.978 71.844, 268.245 92.277, 251.836 116.645 C 235.426 141.012, 221.993 161.523, 221.986 162.224 C 221.961 164.387, 235.448 198.991, 236.318 198.996 C 238.062 199.005, 271.562 185.790, 272.614 184.678 C 273.227 184.030, 279.425 160.550, 286.388 132.500 C 293.351 104.450, 299.444 80.561, 299.928 79.412 C 300.413 78.264, 305.375 74.065, 310.955 70.081 C 322.524 61.821, 321.110 61.784, 330.934 70.615 C 337.614 76.621, 347.085 89.231, 351.479 97.967 C 364.481 123.824, 365.382 154.978, 353.926 182.518 C 352.321 186.377, 349.456 191.890, 347.561 194.768 C 345.666 197.645, 344.427 199.994, 344.807 199.986 C 346.255 199.956, 357.577 189.253, 363.413 182.399 C 382.958 159.442, 392.442 129.410, 389.943 98.388 C 386.280 52.920, 359.249 18.284, 315.190 2.602 L 307.881 0 269.190 0.063 C 230.666 0.125, 230.468 0.136, 223.015 2.625 M 127 315.360 C 115.309 318.543, 104.345 327.758, 99.209 338.719 C 96.735 343.999, 96.500 345.541, 96.500 356.521 C 96.500 368.050, 96.632 368.811, 99.734 375.110 C 112.645 401.338, 149.180 406.959, 169.904 385.906 C 192.400 363.052, 181.549 323.627, 150.540 315.552 C 143.519 313.724, 133.316 313.641, 127 315.360 M 1 357 L 1 398 10 398 L 19 398 19 386.635 L 19 375.270 31.250 374.742 C 49.860 373.940, 57.732 370.320, 62.652 360.301 C 65.147 355.219, 65.500 353.376, 65.500 345.429 C 65.500 337.303, 65.185 335.740, 62.471 330.429 C 60.066 325.719, 58.377 323.862, 54.260 321.396 C 46.967 317.028, 40.312 316, 19.333 316 L 1 316 1 357 M 217 357 L 217 398 226.500 398 L 236 398 236 385 L 236 372 242.332 372 L 248.663 372 257.582 384.974 L 266.500 397.949 277.824 397.974 L 289.148 398 283.625 390.250 C 271.363 373.044, 268.576 368.641, 269.709 368.264 C 270.348 368.051, 272.640 366.595, 274.802 365.028 C 285.028 357.621, 287.260 335.837, 278.840 325.622 C 272.340 317.736, 264.872 316, 237.451 316 L 217 316 217 357 M 129.478 331.808 C 117.561 337.409, 111.624 351.310, 115.480 364.583 C 116.823 369.204, 118.327 371.626, 122.350 375.640 C 130.370 383.645, 139.542 385.210, 149.118 380.207 C 158.380 375.368, 163.029 367.234, 162.951 356 C 162.884 346.390, 158.675 338.461, 150.918 333.327 C 145.577 329.793, 135.312 329.065, 129.478 331.808 M 19.750 331.561 C 19.337 331.986, 19 338.333, 19 345.667 L 19 359 28.032 359 C 42.591 359, 47.023 355.676, 46.985 344.782 C 46.966 339.067, 45.210 335.852, 40.992 333.807 C 37.254 331.994, 20.998 330.275, 19.750 331.561 M 236 343.505 L 236 356 245.532 356 C 260.720 356, 265 353.132, 265 342.952 C 265 338.408, 264.575 336.966, 262.750 335.323 C 259.462 332.364, 257.624 331.931, 246.269 331.448 L 236 331.011 236 343.505" stroke="none" fill="#164b64" fill-rule="evenodd"/><path d="M 0 157.917 L 0 315.834 22.250 316.237 C 40.050 316.561, 45.411 316.983, 49.056 318.349 C 59.567 322.287, 64.854 330.107, 65.739 343.023 C 66.462 353.566, 64.278 360.787, 58.690 366.326 C 52.530 372.434, 46.934 374.185, 31.750 374.757 L 19 375.236 19 386.582 L 19 397.928 9.250 398.254 C 3.887 398.434, 29.200 398.630, 65.500 398.690 C 107.150 398.759, 130.068 398.463, 127.618 397.888 C 117.056 395.408, 104.830 385.518, 99.622 375.241 C 98.203 372.440, 96.542 366.929, 95.931 362.996 C 92.656 341.884, 105.008 322.004, 125.213 315.867 C 135.489 312.746, 148.232 313.516, 157.415 317.814 C 166.157 321.904, 174.085 329.847, 178.291 338.726 C 181.307 345.093, 181.498 346.160, 181.469 356.500 C 181.439 366.788, 181.231 367.925, 178.254 374.069 C 172.445 386.056, 162.922 394.207, 151 397.397 C 146.110 398.705, 169.356 398.876, 360.691 398.934 C 479.046 398.970, 576.021 398.663, 576.192 398.250 C 576.362 397.837, 576.245 394.125, 575.931 390 L 575.360 382.500 575.180 390.250 L 575 398 548.500 398 L 522 398 522 357 L 522 316 530.986 316 L 539.973 316 540.236 348.750 L 540.500 381.500 558.086 381.772 L 575.673 382.045 576.335 331.772 C 576.700 304.123, 576.998 218.162, 576.999 140.750 L 577 0 442.750 0.033 L 308.500 0.067 314.500 2.086 C 331.750 7.891, 349.134 18.996, 361.583 32.163 C 369.974 41.038, 373.432 45.907, 378.510 56 C 394.519 87.820, 394.727 125.990, 379.068 158.456 C 372.832 171.384, 364.672 182.343, 353.525 192.760 C 344.557 201.139, 342.026 202.581, 345.945 197.077 C 349.819 191.637, 356.805 175.697, 359.128 167 C 362.321 155.042, 362.373 130.269, 359.229 118.825 C 356.137 107.572, 351.623 97.356, 345.870 88.592 C 340.831 80.918, 328.927 67.964, 323.863 64.646 L 321.233 62.923 310.745 70.440 L 300.257 77.958 286.848 131.606 L 273.440 185.254 255.601 192.127 C 245.790 195.907, 237.230 199, 236.579 199 C 235.516 199, 221.667 165.033, 221.667 162.426 C 221.667 161.834, 235.474 140.815, 252.349 115.716 L 283.032 70.083 281.458 57.317 C 280.593 50.296, 279.761 44.427, 279.610 44.276 C 279.458 44.125, 274.872 43.329, 269.417 42.507 C 229.107 36.431, 187.629 50.193, 161.310 78.376 C 138.184 103.138, 125.828 134.698, 125.828 169 C 125.828 196.762, 133.770 222.924, 148.349 243.180 L 153.876 250.860 149.688 254.714 C 134.246 268.927, 115.852 275.853, 91.191 276.741 C 64.467 277.702, 43.800 271.938, 21.888 257.413 C 13.410 251.793, 0.751 240.092, 1.378 238.456 C 1.735 237.527, 29.645 198.422, 31.579 196.142 C 31.745 195.946, 35.507 198.871, 39.938 202.642 C 54.511 215.046, 65.566 220.295, 79.929 221.630 C 90.561 222.618, 96.889 220.308, 104.464 212.673 C 115.047 202.006, 114.451 207.086, 114.781 124.750 L 115.064 54 74.532 54 L 34 54 34 27.500 L 34 1 105.500 1 L 177 1 177 4.018 C 177 6.458, 175.663 8.297, 170.016 13.624 C 154.143 28.598, 142.684 50.220, 139.608 71 L 138.943 75.500 144.027 67 C 146.823 62.325, 151.586 55.266, 154.613 51.313 C 161.224 42.678, 176.487 27.892, 185.191 21.690 C 194.305 15.196, 211.098 6.588, 221.500 3.078 L 230.500 0.041 115.250 0.021 L 0 0 0 157.917 M 0.488 158.500 C 0.488 245.400, 0.606 280.802, 0.750 237.171 C 0.894 193.540, 0.894 122.440, 0.750 79.171 C 0.606 35.902, 0.488 71.600, 0.488 158.500 M 357 3.381 C 357 4.971, 358.247 6.690, 360.750 8.551 C 367.260 13.393, 380.318 27.320, 385.207 34.637 C 394.713 48.865, 400.868 63.563, 404.621 81 C 407.147 92.738, 407.193 123.047, 404.702 134.263 C 399.026 159.812, 387.249 181.928, 369.782 199.837 C 359.998 209.869, 353.657 214.661, 342 220.832 C 315.477 234.873, 282.299 239.392, 254 232.819 C 231.656 227.629, 210.200 215.752, 196.920 201.223 C 166.785 168.250, 162.093 121.319, 185.017 82.160 C 188.540 76.142, 187.661 76.321, 179.622 83.261 C 163.548 97.139, 149.498 121.449, 144.520 144 C 141.946 155.658, 141.459 174.570, 143.417 186.828 C 147.439 212.011, 157.470 231.524, 175.159 248.577 C 212.580 284.653, 276.761 292.104, 328.251 266.350 C 350.775 255.085, 371.796 236.300, 384.598 215.999 C 386.852 212.424, 389.696 207.925, 390.918 206 L 393.140 202.500 392.504 207.500 C 390.139 226.072, 379.582 246.337, 364.635 261 C 358.144 267.367, 357 268.989, 357 271.825 L 357 275.161 428.250 274.696 C 503.155 274.207, 503.499 274.187, 521.252 269.427 C 529.468 267.224, 542.260 261.044, 548.466 256.280 C 558.512 248.568, 568.275 233.714, 572.642 219.500 C 574.982 211.883, 575.267 187.250, 573.105 179.500 C 569.260 165.712, 559.537 152.514, 546.909 143.938 C 540.837 139.815, 528.133 134.013, 525.112 133.985 C 524.226 133.976, 522.840 133.552, 522.034 133.042 C 520.907 132.329, 521.704 131.627, 525.473 130.012 C 532.316 127.078, 543.525 118.542, 548.049 112.818 C 562.172 94.951, 564.120 65.074, 552.647 42.291 C 544.101 25.321, 534.074 16.410, 515.456 9.240 C 496.494 1.938, 485.529 1.038, 415.250 1.017 L 357 1 357 3.381 M 418 82.621 L 418 112.243 442.750 111.714 C 468.932 111.154, 477.063 110.049, 485.075 105.962 C 493.848 101.486, 496.366 96.175, 496.438 82 C 496.487 72.298, 496.282 71.144, 493.742 66.815 C 487.215 55.695, 476.987 53.084, 439.750 53.031 L 418 53 418 82.621 M 418 191.385 L 418 223 444.750 222.969 C 459.462 222.952, 474.875 222.502, 479 221.970 C 503.120 218.856, 512.012 210.568, 511.990 191.221 C 511.975 177.805, 507.882 170.471, 497.988 166.128 C 488.073 161.778, 479.984 160.827, 448.250 160.285 L 418 159.769 418 191.385 M 217 357 L 217 398 226.500 398 L 236 398 236 385 L 236 372 242.250 372.005 L 248.500 372.011 257.439 385.005 L 266.377 398 277.748 398 C 286.584 398, 288.948 397.721, 288.356 396.750 C 287.937 396.063, 283.318 389.456, 278.092 382.068 C 272.730 374.490, 269.094 368.469, 269.747 368.251 C 272.589 367.304, 277.645 363.167, 279.716 360.094 C 282.786 355.538, 283.988 350.735, 283.994 342.993 C 284.004 332.223, 281.069 325.582, 274.357 321.182 C 267.937 316.974, 261.161 316, 238.290 316 L 217 316 217 357 M 316 324 L 316 332 327.486 332 L 338.973 332 339.236 364.750 L 339.500 397.500 348.750 397.788 L 358 398.075 358 365.070 L 358 332.066 369.250 331.783 L 380.500 331.500 380.792 323.750 L 381.084 316 348.542 316 L 316 316 316 324 M 437.651 319.213 C 431.005 334.736, 426.515 345.135, 425.006 348.500 C 418.279 363.497, 404 396.923, 404 397.674 C 404 397.893, 408.365 397.944, 413.699 397.786 L 423.399 397.500 427.060 389 L 430.720 380.500 448.032 380.500 L 465.344 380.500 469.113 389 L 472.882 397.500 482.441 397.786 C 487.699 397.944, 492 397.843, 492 397.564 C 492 397.023, 477.824 363.646, 475.358 358.382 C 474.555 356.667, 470.177 346.542, 465.631 335.882 L 457.364 316.500 448.211 316.213 L 439.058 315.926 437.651 319.213 M 130.615 331.472 C 125.686 333.229, 119.588 339.154, 116.816 344.880 C 115.227 348.162, 114.672 351.169, 114.686 356.410 C 114.711 365.253, 117.413 371.433, 123.657 376.930 C 139.402 390.789, 163 378.521, 163 356.477 C 163 338.334, 146.692 325.742, 130.615 331.472 M 19 345.500 L 19 359 28.032 359 C 39.060 359, 43.033 357.558, 45.328 352.722 C 47.428 348.296, 47.474 341.818, 45.434 337.872 C 43.193 333.538, 38.634 332, 28.032 332 L 19 332 19 345.500 M 236 343.916 L 236 356 244.750 355.994 C 260.455 355.984, 265 353.162, 265 343.421 C 265 339.252, 264.482 337.509, 262.589 335.306 C 260.230 332.561, 259.914 332.493, 248.089 332.166 L 236 331.833 236 343.916 M 442.860 352.200 C 440.462 357.810, 438.350 362.760, 438.167 363.200 C 437.983 363.640, 442.419 364, 448.024 364 C 457.086 364, 458.144 363.817, 457.580 362.349 C 454.956 355.509, 448.574 342, 447.967 342 C 447.556 342, 445.258 346.590, 442.860 352.200" stroke="none" fill="#fafaf8" fill-rule="evenodd"/></svg>